<mxfile host="app.diagrams.net" modified="2024-03-25T04:56:25.188Z" agent="Mozilla/5.0 (Windows NT 10.0; Win64; x64) AppleWebKit/537.36 (KHTML, like Gecko) Chrome/121.0.0.0 Safari/537.36 OPR/107.0.0.0" etag="XvHtoDMJjc-GsCxzgDVv" version="24.1.0" type="github">
  <diagram name="Page-1" id="MxsEjAnDp-UsrxhBr32G">
    <mxGraphModel dx="1755" dy="380" grid="1" gridSize="10" guides="1" tooltips="1" connect="1" arrows="1" fold="1" page="1" pageScale="1" pageWidth="850" pageHeight="1100" background="none" math="0" shadow="0">
      <root>
        <mxCell id="0" />
        <mxCell id="1" parent="0" />
        <mxCell id="Yl4wIURJnz0LVksq39Sc-1" value="Staff" style="whiteSpace=wrap;html=1;align=center;rounded=0;" vertex="1" parent="1">
          <mxGeometry x="570" y="240" width="100" height="40" as="geometry" />
        </mxCell>
        <mxCell id="Yl4wIURJnz0LVksq39Sc-2" value="Member" style="whiteSpace=wrap;html=1;align=center;rounded=0;" vertex="1" parent="1">
          <mxGeometry x="60" y="180" width="100" height="40" as="geometry" />
        </mxCell>
        <mxCell id="Yl4wIURJnz0LVksq39Sc-3" value="Shelf" style="whiteSpace=wrap;html=1;align=center;rounded=0;" vertex="1" parent="1">
          <mxGeometry x="60" y="720" width="100" height="45" as="geometry" />
        </mxCell>
        <mxCell id="Yl4wIURJnz0LVksq39Sc-4" value="Supplier" style="whiteSpace=wrap;html=1;align=center;rounded=0;" vertex="1" parent="1">
          <mxGeometry x="225" y="490" width="100" height="40" as="geometry" />
        </mxCell>
        <mxCell id="Yl4wIURJnz0LVksq39Sc-5" value="Book" style="whiteSpace=wrap;html=1;align=center;rounded=0;" vertex="1" parent="1">
          <mxGeometry x="60" y="420" width="100" height="40" as="geometry" />
        </mxCell>
        <mxCell id="Yl4wIURJnz0LVksq39Sc-7" value="Catalog" style="whiteSpace=wrap;html=1;align=center;rounded=0;" vertex="1" parent="1">
          <mxGeometry x="-170" y="560" width="100" height="40" as="geometry" />
        </mxCell>
        <mxCell id="Yl4wIURJnz0LVksq39Sc-9" value="Manages" style="shape=rhombus;perimeter=rhombusPerimeter;whiteSpace=wrap;html=1;align=center;rounded=0;" vertex="1" parent="1">
          <mxGeometry x="300" y="310" width="100" height="60" as="geometry" />
        </mxCell>
        <mxCell id="Yl4wIURJnz0LVksq39Sc-10" value="" style="fontSize=12;html=1;endArrow=ERone;endFill=1;rounded=0;exitX=1;exitY=0.5;exitDx=0;exitDy=0;" edge="1" parent="1" source="Yl4wIURJnz0LVksq39Sc-9">
          <mxGeometry width="100" height="100" relative="1" as="geometry">
            <mxPoint x="330" y="500" as="sourcePoint" />
            <mxPoint x="570" y="250" as="targetPoint" />
          </mxGeometry>
        </mxCell>
        <mxCell id="Yl4wIURJnz0LVksq39Sc-12" value="" style="fontSize=12;html=1;endArrow=ERoneToMany;rounded=0;exitX=0;exitY=0.5;exitDx=0;exitDy=0;entryX=1;entryY=0;entryDx=0;entryDy=0;" edge="1" parent="1" source="Yl4wIURJnz0LVksq39Sc-9" target="Yl4wIURJnz0LVksq39Sc-5">
          <mxGeometry width="100" height="100" relative="1" as="geometry">
            <mxPoint x="380" y="330" as="sourcePoint" />
            <mxPoint x="210" y="380" as="targetPoint" />
          </mxGeometry>
        </mxCell>
        <mxCell id="Yl4wIURJnz0LVksq39Sc-13" value="" style="fontSize=12;html=1;endArrow=ERoneToMany;rounded=0;exitX=0;exitY=0.5;exitDx=0;exitDy=0;entryX=0.75;entryY=0;entryDx=0;entryDy=0;" edge="1" parent="1" source="Yl4wIURJnz0LVksq39Sc-32" target="Yl4wIURJnz0LVksq39Sc-4">
          <mxGeometry width="100" height="100" relative="1" as="geometry">
            <mxPoint x="400" y="390" as="sourcePoint" />
            <mxPoint x="270" y="430" as="targetPoint" />
            <Array as="points" />
          </mxGeometry>
        </mxCell>
        <mxCell id="Yl4wIURJnz0LVksq39Sc-14" value="Borrow" style="shape=rhombus;perimeter=rhombusPerimeter;whiteSpace=wrap;html=1;align=center;rounded=0;" vertex="1" parent="1">
          <mxGeometry x="50" y="290" width="120" height="60" as="geometry" />
        </mxCell>
        <mxCell id="Yl4wIURJnz0LVksq39Sc-15" value="" style="fontSize=12;html=1;endArrow=ERone;endFill=1;rounded=0;exitX=0.5;exitY=0;exitDx=0;exitDy=0;entryX=0.5;entryY=1;entryDx=0;entryDy=0;" edge="1" parent="1" source="Yl4wIURJnz0LVksq39Sc-14" target="Yl4wIURJnz0LVksq39Sc-2">
          <mxGeometry width="100" height="100" relative="1" as="geometry">
            <mxPoint x="200" y="290" as="sourcePoint" />
            <mxPoint x="300" y="190" as="targetPoint" />
          </mxGeometry>
        </mxCell>
        <mxCell id="Yl4wIURJnz0LVksq39Sc-19" value="Included in" style="shape=rhombus;perimeter=rhombusPerimeter;whiteSpace=wrap;html=1;align=center;rounded=0;" vertex="1" parent="1">
          <mxGeometry x="50" y="540" width="120" height="60" as="geometry" />
        </mxCell>
        <mxCell id="Yl4wIURJnz0LVksq39Sc-23" value="Order" style="shape=rhombus;perimeter=rhombusPerimeter;whiteSpace=wrap;html=1;align=center;rounded=0;" vertex="1" parent="1">
          <mxGeometry x="390" y="520" width="120" height="60" as="geometry" />
        </mxCell>
        <mxCell id="Yl4wIURJnz0LVksq39Sc-24" value="" style="fontSize=12;html=1;endArrow=ERone;endFill=1;rounded=0;exitX=1;exitY=0;exitDx=0;exitDy=0;entryX=0.5;entryY=1;entryDx=0;entryDy=0;" edge="1" parent="1" source="Yl4wIURJnz0LVksq39Sc-23" target="Yl4wIURJnz0LVksq39Sc-1">
          <mxGeometry width="100" height="100" relative="1" as="geometry">
            <mxPoint x="480" y="580" as="sourcePoint" />
            <mxPoint x="580" y="480" as="targetPoint" />
          </mxGeometry>
        </mxCell>
        <mxCell id="Yl4wIURJnz0LVksq39Sc-25" value="" style="fontSize=12;html=1;endArrow=ERoneToMany;rounded=0;exitX=0;exitY=0;exitDx=0;exitDy=0;entryX=1;entryY=1;entryDx=0;entryDy=0;" edge="1" parent="1" source="Yl4wIURJnz0LVksq39Sc-23" target="Yl4wIURJnz0LVksq39Sc-4">
          <mxGeometry width="100" height="100" relative="1" as="geometry">
            <mxPoint x="250" y="580" as="sourcePoint" />
            <mxPoint x="350" y="480" as="targetPoint" />
          </mxGeometry>
        </mxCell>
        <mxCell id="Yl4wIURJnz0LVksq39Sc-26" value="Contains" style="shape=rhombus;perimeter=rhombusPerimeter;whiteSpace=wrap;html=1;align=center;rounded=0;" vertex="1" parent="1">
          <mxGeometry x="-180" y="410" width="120" height="60" as="geometry" />
        </mxCell>
        <mxCell id="Yl4wIURJnz0LVksq39Sc-27" value="" style="fontSize=12;html=1;endArrow=ERone;endFill=1;rounded=0;exitX=0.5;exitY=1;exitDx=0;exitDy=0;entryX=0.5;entryY=0;entryDx=0;entryDy=0;" edge="1" parent="1" source="Yl4wIURJnz0LVksq39Sc-26" target="Yl4wIURJnz0LVksq39Sc-7">
          <mxGeometry width="100" height="100" relative="1" as="geometry">
            <mxPoint x="100" y="530" as="sourcePoint" />
            <mxPoint x="200" y="430" as="targetPoint" />
            <Array as="points" />
          </mxGeometry>
        </mxCell>
        <mxCell id="Yl4wIURJnz0LVksq39Sc-28" value="" style="fontSize=12;html=1;endArrow=ERzeroToMany;endFill=1;rounded=0;exitX=1;exitY=0.5;exitDx=0;exitDy=0;entryX=0;entryY=0.5;entryDx=0;entryDy=0;" edge="1" parent="1" source="Yl4wIURJnz0LVksq39Sc-26" target="Yl4wIURJnz0LVksq39Sc-5">
          <mxGeometry width="100" height="100" relative="1" as="geometry">
            <mxPoint x="-130" y="500" as="sourcePoint" />
            <mxPoint x="-30" y="400" as="targetPoint" />
            <Array as="points" />
          </mxGeometry>
        </mxCell>
        <mxCell id="Yl4wIURJnz0LVksq39Sc-30" value="" style="fontSize=12;html=1;endArrow=ERoneToMany;rounded=0;entryX=1;entryY=1;entryDx=0;entryDy=0;exitX=0;exitY=0.5;exitDx=0;exitDy=0;" edge="1" parent="1" source="Yl4wIURJnz0LVksq39Sc-4" target="Yl4wIURJnz0LVksq39Sc-5">
          <mxGeometry width="100" height="100" relative="1" as="geometry">
            <mxPoint x="190" y="610" as="sourcePoint" />
            <mxPoint x="160" y="480" as="targetPoint" />
          </mxGeometry>
        </mxCell>
        <mxCell id="Yl4wIURJnz0LVksq39Sc-31" value="Manages" style="shape=rhombus;perimeter=rhombusPerimeter;whiteSpace=wrap;html=1;align=center;rounded=0;" vertex="1" parent="1">
          <mxGeometry x="325" y="170" width="100" height="60" as="geometry" />
        </mxCell>
        <mxCell id="Yl4wIURJnz0LVksq39Sc-32" value="Manages" style="shape=rhombus;perimeter=rhombusPerimeter;whiteSpace=wrap;html=1;align=center;rounded=0;" vertex="1" parent="1">
          <mxGeometry x="360" y="410" width="100" height="60" as="geometry" />
        </mxCell>
        <mxCell id="Yl4wIURJnz0LVksq39Sc-34" value="" style="fontSize=12;html=1;endArrow=ERone;endFill=1;rounded=0;exitX=1;exitY=0.5;exitDx=0;exitDy=0;entryX=0.657;entryY=-0.026;entryDx=0;entryDy=0;entryPerimeter=0;" edge="1" parent="1" source="Yl4wIURJnz0LVksq39Sc-31" target="Yl4wIURJnz0LVksq39Sc-1">
          <mxGeometry width="100" height="100" relative="1" as="geometry">
            <mxPoint x="450" y="310" as="sourcePoint" />
            <mxPoint x="550" y="410" as="targetPoint" />
          </mxGeometry>
        </mxCell>
        <mxCell id="Yl4wIURJnz0LVksq39Sc-35" value="" style="fontSize=12;html=1;endArrow=ERone;endFill=1;rounded=0;exitX=1;exitY=0.5;exitDx=0;exitDy=0;entryX=0.25;entryY=1;entryDx=0;entryDy=0;" edge="1" parent="1" source="Yl4wIURJnz0LVksq39Sc-32" target="Yl4wIURJnz0LVksq39Sc-1">
          <mxGeometry width="100" height="100" relative="1" as="geometry">
            <mxPoint x="460" y="320" as="sourcePoint" />
            <mxPoint x="560" y="420" as="targetPoint" />
          </mxGeometry>
        </mxCell>
        <mxCell id="Yl4wIURJnz0LVksq39Sc-37" value="" style="fontSize=12;html=1;endArrow=ERone;endFill=1;rounded=0;exitX=1;exitY=0.5;exitDx=0;exitDy=0;entryX=0;entryY=0;entryDx=0;entryDy=0;" edge="1" parent="1" source="Yl4wIURJnz0LVksq39Sc-14" target="Yl4wIURJnz0LVksq39Sc-1">
          <mxGeometry width="100" height="100" relative="1" as="geometry">
            <mxPoint x="470" y="330" as="sourcePoint" />
            <mxPoint x="570" y="240" as="targetPoint" />
            <Array as="points">
              <mxPoint x="410" y="260" />
            </Array>
          </mxGeometry>
        </mxCell>
        <mxCell id="Yl4wIURJnz0LVksq39Sc-39" value="" style="fontSize=12;html=1;endArrow=ERzeroToOne;endFill=1;rounded=0;entryX=0.5;entryY=0;entryDx=0;entryDy=0;exitX=0.5;exitY=1;exitDx=0;exitDy=0;" edge="1" parent="1" source="Yl4wIURJnz0LVksq39Sc-19" target="Yl4wIURJnz0LVksq39Sc-3">
          <mxGeometry width="100" height="100" relative="1" as="geometry">
            <mxPoint x="-200" y="760" as="sourcePoint" />
            <mxPoint x="30" y="700" as="targetPoint" />
          </mxGeometry>
        </mxCell>
        <mxCell id="Yl4wIURJnz0LVksq39Sc-41" value="" style="fontSize=12;html=1;endArrow=ERoneToMany;rounded=0;exitX=0.5;exitY=1;exitDx=0;exitDy=0;entryX=0.5;entryY=0;entryDx=0;entryDy=0;" edge="1" parent="1" source="Yl4wIURJnz0LVksq39Sc-14" target="Yl4wIURJnz0LVksq39Sc-5">
          <mxGeometry width="100" height="100" relative="1" as="geometry">
            <mxPoint x="-70" y="480" as="sourcePoint" />
            <mxPoint x="30" y="380" as="targetPoint" />
          </mxGeometry>
        </mxCell>
        <mxCell id="Yl4wIURJnz0LVksq39Sc-42" value="" style="fontSize=12;html=1;endArrow=ERzeroToMany;endFill=1;rounded=0;entryX=0.5;entryY=1;entryDx=0;entryDy=0;exitX=0.5;exitY=0;exitDx=0;exitDy=0;" edge="1" parent="1" source="Yl4wIURJnz0LVksq39Sc-19" target="Yl4wIURJnz0LVksq39Sc-5">
          <mxGeometry width="100" height="100" relative="1" as="geometry">
            <mxPoint x="140" y="640" as="sourcePoint" />
            <mxPoint x="240" y="540" as="targetPoint" />
          </mxGeometry>
        </mxCell>
        <mxCell id="Yl4wIURJnz0LVksq39Sc-46" value="" style="edgeStyle=entityRelationEdgeStyle;fontSize=12;html=1;endArrow=ERzeroToMany;endFill=1;entryX=1;entryY=0.5;entryDx=0;entryDy=0;exitX=0;exitY=0.5;exitDx=0;exitDy=0;" edge="1" parent="1" source="Yl4wIURJnz0LVksq39Sc-31" target="Yl4wIURJnz0LVksq39Sc-2">
          <mxGeometry width="100" height="100" relative="1" as="geometry">
            <mxPoint x="270" y="240" as="sourcePoint" />
            <mxPoint x="370" y="140" as="targetPoint" />
          </mxGeometry>
        </mxCell>
        <mxCell id="Yl4wIURJnz0LVksq39Sc-59" value="" style="shape=stencil(lZ3dsiQ3boSfZm47+P9zvbbfQxEarRQraxSjWdv79ktaUd19Mrs/ju40R0AXi0USQCIBfsp/++PnH37//CmFP759/fKPz//7y4/ffv6U/+NTSr/89vPnr798W//1Kf/np/y3n758/fz3r1/++duPf/779x+25P6v//7yP/sX/u9Pvdlvc2ytFP71519KupX0/3/5rz8Vfv3lt2eFcUvxo0K8hYIKJXxQyPM2AyrU9lFh3EZDhS5PWG8VUWHUjwrtVnlIM31UqLfMT5jyhHKLkxXKR4V8fMLH75DT6Qn945fO8ZZ4Wqu8Q7ilgQr543dI8xZ5LcWP75Duf3mt0HVaU7+ligo9f1Rot9RRIX9cfKneAr10v4X5UWF9aZrWduuisL40fbh2K6KQbo2mtdm0xtvIoFBvvapCoO+wVn//qBBukWap6DETJ++4oodAXJuWnyDfYSkkekK+tY87LvZbpYMsX4v5rtCut3qtkG49qkKh1ZqutXlXqNdJ9VohXgvhSQFXa9AvHQvuhzFvQ6Z1zRssjaWQkirQ0hjj1uRLp9uA77AUYlaFQu+wvutUhUAKTe1DjLdKClXtQwzXef5OIU9VaLBaR7mNqAoJDoGlIN9hfUl6hXyrQ+QLnEoj6VE8r8/yTj5/HM+4zsHX8lE3z8C9s+RjFXk6hkfQrdPxfOlTnYx+K/C+3TyAZShg/N2MZ8Mzu3fdNsuuwHroTf2Fhqfdkpf5bNcAX8vX6/M85AONv9z6x+O3opPX821mke/0+1ntQeX3Xeuzijz5wX2dCFHkcX7Crer46Vhs0983wu8vebEdyxLA+NvQ8ZfrDHstv9abBAq3QfJND6xy/cBr+arrs+D3WvIhi3wBu9TK5Q085Mn7bflWishHOD+bGfuClnjJh4/nT0ZnokULozCKasFinOuDvJO38TSY/zrVUc7XgnotP3R+ltcL77vkbTzkztWu9mUZKPi+tV329iHfafz1mu6HfIXzfMlHcZGvBfVa/h41POQzya/1OUQ+gT2t6TIPT/L0+9Hfl+zpktc46PrDa/lwhbdP8jD/Zer3ivh9y7K/U+XhfctQ+xXxPCxmfyParyUfTB7sV2kaYkX038oyh/r7hIEseQkSD/NTLg/4SR7Wf8nXcL/ze+XruPzO31/LN/+V8cfLPHynfHjxviCfpznoJ/lk6w3eNw/1z5c8rIds52e8NsRr+W4owy3AeZvv7ul3y2v0zOMxf/IgX67t9zQe2L+5qL+UEKvKBhcktEc56fmTLuD0nbyCZyy/Qn+d/4N8qCpP7xvU37hvuJfyK/xTpA3xyyUv6zOhv7HDOYEvcb2tcCuqf5Jhf61wpal/Qv7nDm8EsEX/4RFOPPljcB5u9zqLPPmH251V/5zs7x6u+re0ntfnGfr7hcafdL+Xy2C+lo8XHvgUX9D8BwXMK8bXS1781YpgdlzrWeMp8m+XfNR4sNPvW1qkISa1wckh8uQfxqb7sV0o2Gv5epnnJ/yBfr9ej3/gGwTdx6Lz2S8H5518VPyEzocNS2aRJ/sbzd8YCITGpPH7QP8/Rj3/B48nqj8/Ee+KQe3dRP/hARc+AYgE8E1NFx0gTVv/640Q0XwB+yJOrOf/holhwXVDujNumK74wF6BFGDb/JTLA38jL/tl7SDakNXil4YGrL5IZwQK2NReLHkCdIqeD/Gedn0j3yzjQyh9sfg9oIHJ5l9FPFDW+WBZtEIOnOI/24HA8WjS7WAgdf1sA0MO1vVrd/mGOYmk8cUGrMmBMPmBgEXS/XJIGKRrN939mXBrZLAV31seLDlkUfHSzESGFU7LePK1At/Iy3m1Igian6j2YkU0FX9fvu+KmAjQjJpBWhEcpZGj7q8VIRIAGjUeWRFrhvVp8iXg/nL5iA5ivOCtu3zC8zaaP5yvVOZ3ypdrRX2nfGMHyMbPCSGfn4E8G5efh/GIfA0Y4EXFo2pEex2v9Nhd/rQfVT6zg6jxVOXz1uXZ/hpetBFjHr/8fj/8vtjrOi4P9o285B/rRPtr8u2e+/9O+cgBjOLJjQH0qPhYWxYZv6/gz+2eMXwnL/FRRaKC2aPWOIBX+74zYmi/VH5ggjapf9smzo/Z651hpABe8fYeMQGTND/Y08mfkfw4E0WSxYPlsshv5GU99Ir+f1a8qzfcL1nxos50oKzneR8nf1LkJyZgjI8xwhURv5GX+R+RAVnFl0bChGW50jN3+cwJm4uN+CRP38vw2FHwvCo6n6Pi/irXbrrLNzxvixKfRkf/tl7wzV1+cELO5ocJNFXfdwb8vlVJTzMg4FiVljgjfq96wUN3+YTz33T9zIwASjP+0p0S+C4eFz5Sxf3VNR5f8sjxuk7Lu3xD/23q+bPkKb6Ymq9f8o38h6AJ9U1FJYNqHsdSoIg8Jk25LgWiI0bLSU/m80YDrecBhTMUYpOOaUhVj7mTQlO/70FrfgfMysbf70COSrfvMDB1E4ea7jnY9Z6ai98K5EsY+eOkYNmkw5Ae2cHvV2g2rURA2AbZFx8BKmYBtwJ5IHdG0tN+IA5jshz7UkDMpiopcW9RcqLatdSeFKgKYB+TsoEa8go2bTGpAk5rV0f2cBAnyzxPZtAno6JNhuY2tVOekNCWrMNe93RkcG4oe3BZ20M6U770Mv/Ej9v2RPyvQzwx9SBbDgwxMNJUD3spECKQg5rQg0u1FARzWwq0WrOBDtvJI6c5apZyKdAG2iBhVAXire68vrx0QSJPzlrJsBQocMzGBFsKlErPRqVdCuj6V8W2l2+OQ2pKZlsKOK3NopGM6dZs7tgOL2hau63WhBsoWznTSPwOUzO0gyl2JWhhwlYgzlOwD5fQ7JaonsBglkuJFuVFjLJLUlh5cBqvGM9lKVBJVrFE7QpskRlmmeDBSMdSEAdrKZCDtblwEvtPxH6LBUtLgQxKabrjlgLZuNIVnuoD4e6lIOFAH4jvlKEEus72oVgB4UZI6DvcEwZPCuQ6lKmcwV21AMu7BgWNO1dBbMy6qALFQDXaS3MBYU1qsrYCxdFJa4e2AgX2WcOyXpEaV+9M9ycFglaqczXqieyc7QnIXq5qRXvFk8/p2p3rFWq3l2YCUu02pIImqw5FWHaNCs3S1JTLASJdChLtdiaxtWCgbeYqhKjefT+gONG+A/P8WlL3p3NeoWUtMO8RE9fNkMmlgMyNoqUmPeDSaFVzF0sBi0Ha5U49g/n04cz92fU89A4W0jQukt/1Pl0VKB+3BqAJkoGMwv2KMiRGTLuVACwFSnEuBbEPjUltPdpLV7RxPWk8vRSwzM9okY3rorrlAXZlEr1DUailMZC+K+uSKlDmYB29Ar2vTUurdWdekioQeXpbNHnpiMmYbhW4S4F2XO8KPTamlyzvSPgljZ3EpaAFfJMrFqcyhLcBoC89FRNYJoac9WGcvsrw6VKQpbGsHnmV25fvqpDgSw9L89Z2qiMWXH37BlxILP7SUqCAY4eqkjkvuPiWgj6h4Lk0ii7vmrn4uKjrUBMmB4aZrOWY4rRWDQeWr4w171bCvrxxKiDa0E1RBawwb+okFqasLgVxHWrgGnNDHXaAwO8gcVxlksTuDBD0O9DJNywtVdmbGc0OAfaXhoWWlSvplkIyZs5hWsXBOilYeFwZphhViy8qwxQb1RuqQLHosPKLRyj4VkFmKVxR0TsFLQgP6Drsl66qQHZ6VDWK5w0kMPZ5i8pBdj4Equ04Yh3v5W17muKHvYG6KhDIPKzwvDIR4sUTIqYT9juYAqVq9yzZkE4nnyvQarVuDWvHVTo1bC1Vpr/u5S0frmB2YFR1pZcCvoN3hKjcCKZopFgb1ugswy5gTmUO5sgalm1SHz3BWFB18CwlzVpWTusM491tr5JmKdosTSTCbifRmIMUoWw3tKoCevdTk5CNuaTdkJOlgIHfsAiFy483WCrhQEK68wo4hP+y+Y8UcHR7AjuJ3VK1mzHJChrHFTyMe7VIsSDOt0E6C4+xq01RuKgxy2ZHuzKkxu+Q1QI1PgS6JSwat/HqyYJXxr27lea2ge5Pj1orubEZWnzBmu0M7sYytRvRhneovcrUPND6C324B/z0pEDkiDY0p9jZu2/Gm+ns3e/vahRZxMisRn1DjwTbVcuhcNeLtb8UKD/grVkRrLXgKdpt1perZ/SX2r152jOMTUvDQvy1aQnXWAopqQKu1qDc1w1RUUrEgfKKUVb11FRF736T841OTM56HZbAa8ifXp6FIusNO1wtZ0cTFp0Zoc2yZZ1TU9aTaRsxmlbrC7lThPTSZh86t2Gr1gZsWW46yB5u7ZNCoicky+0OLESpyTJNB4Woju6mjrOC1Cr3gbUo1ZqNbYeIup1Yt7GNXh5yu1UVyF8qw06NibjGUlCCNLefLV3peQ+487VCU8hrMJhTjG23FDDtbyTsEdHXKNWq0g+cE2vLs2kwxHXIV9uYu0JGYLBk/dI7KqIvbRtocCuxYm1Pd6BGL20x0IHwVLw5JFMMd/cf42ARsr7b/9iQsBx5qiu9FMjny8OYOQVRh9yNC1dw8eWuUPyO4WE/ZANzRsWa2NyMIcVFeLtmNqgCBa+7DZC8Q0MOVi5GbWvMIzP6xVKg0DJnzTSNzq2GrPRql57QE6L6fKPjcb95lbL4uFglB/UExsDTO5sFGgxTLAXhYO36Fm4gpPTtwGzsqQTAGZFMmqyl5uSzdffAEJ5xxvhh9wSRd+CulMla3U9uC5qsrd2siOgmLzZomG5OZqdnx4AjGXIyefE9OsU8KWCpZrPSGG5EvxSUsz7xuN9E/awK+KWrhgNLAddS0azlUiDCk5czxMAVYi8qJib2lHtRkzExVHxR9XF4Ca8rOSjYOTOZurn7zv81haG0lpNCVw9rchIlWuvSpUBBUGwvhkQc9GiJoDm5eYJlvyZXI+/CLF/fVDZl/Xgn9w+JWaGTeWhIkTQxOrnCMloLjsl3DkSj2y0F8nSnnRrMwRovKpQwm2D1RgN9+67e1eSLU5pZ0EN4bz2qOrM8bSM05p1aTWlldrtm72dB1MfQiWXPkSJtxjYjOGFo4DzQ+c3URnTQix2/4dDDSOtzJpY9ZQXFHpc5vJGXrP3yU9GL1NTVI1f7Rj5atIDOzqsIiXsciFOb2TqZI58O49GKE4YLrGfoiNwE8QWkQsmVZMzaiestGn9/cJPCFxUFaAOUJtL5QpVoVReHpo8GX3ICLaoNe9w68EZee1JwU9VgpQHMTAhKCu6834MiNY292KBMiQOH2OU79sgI1rOSyYNBM0KtIi5qPZ1bQYQwaGqkcZ1csKQZ30zj8vEwnyrPPbZMvnIPvmBsT+5JFIx1wj2PXJ57Krk8w0VBMbVDTygr2Kt8KUHQ/OCBCBd0v2/SGZz/Qe31oSeXyR96fgU9zw89xVye+TLWRuDQE83lueeay3NPNx8/94zz+eSedC5/2o8iv3vq/ZXvlcdhPcsdA5n9c1v/uWGUF9R/yPV0Hn78XpkzxcF6IPIliHaHU+b0u9mXzISAoKB+4jJPs7+HHprB7tjgS6WC9jhL7dCDMsl4Tj0oxT4m7rljPTQTJ26sJ9qjC+o7/1bkT/6wjj9iPJXszoCA8Vq2m+cml5BrvLO7fqO89izumIuwyrd9IyH2tNJb5xrul2L34PGlVdbTKhZObGv8GDOTjDRXExOeV816EEecn67+Q+Sewl3zkJEzzsN6TAdE74fhrYipTXVPJlJU7EYdDt6jlesNrC2NVq3HDRNjNG4Ut0WKirM2bnBp6HXjhqRZaUuHBq8GwB9uAChWuMGHs3WYq9zAt/oNe5QOWGeBIOMF+UfRCK2Fg3dDJwuDCcYozAyjz2v6HvJ440TQ8WRucBkUdc+cq/MOygy2WBb3ABYl62iO6z9lRU8SN+wuehomPAy94zvfMJasQICdt2RV2BFvwEtNiSvxlDXUq265YXr3G6WImZmGptsCdtNLdoNZQGKz39jAN8T6DT+BbzQy9Orw+0aDPsgbmnmUn/a+5FxlJWMd3tf6MDE/ebdh0vFQcO03XDHhwW/QOsoPnX/sCmV92A7ydsPYYTx2g1ngDk92Q1pA8MFvYGNw2294O8hbR/CDvN1Qd5C3G2n4ff2GPV5vThU8/H5V+84VxMVuEGLntjQfDybLrCVSwOZxuyNSEXmqcNs3QOr6J3+gWEe+gP7bvsFSx4PJzaD2i68Ir1ZFwoWSNWp2gVsWVst+BSYhW6eLwBfeWHYzcHLZbrA5vG/z/UX++ZIfOj8EPlTjH0f0D+vQ7CZfcFKHZisjlywY04VvjGxBSVAJ99eSN3+VwKgW/YZJDPaT3yhLVYXNb9ThG49tfSa+Ads6lHMD9F0ap/EC1jfZ+ZnRn9k3bJs8VTcZWpGxsXGzhokH+WloL3eGmurfMq+8B8Ur+IKQXVWnNygS+LZLt/RGx0Mhoc0/nT/d2BLHPj5F5alovFe7AQbxit7Uny+Y/Op2oyA3VNu5fL1hkthUu5BHsmVcWzo0XqvcSMnb6yB4OKy5IDc+Hpatbzifw9gJnHwZxsZg3vkuBPk4no7kh5HtRhG01yPbjRzcK6JYTQX37fEbErhBv92APbjOval/yy3XhsVTk1uOdOVqR3bQh10xENmjHIaQxYCQyIOD/wRwE0YzpmKsj1sEXmPKRimJfC/xtHu0Ivfm3qR9ewLtg2ktFjaVFBbGzHZVe8FZmtk8v4JLb2aFLiK3mZtFz6J9Xyth+0UPo9gQfZ9V0aDYkbs1q8FlTDad1v8pMr12Go0/TrSw+wIM8eg4xJpdp/WRMn2noBlhbn/5uLTgrsBe2rSCjXRYfMZP33aTnyBFJ4lrquZUw/y4XPudQrI8OOVh51Qi8m53T2tpamyfGcx7FCrcFSLfNBKcrME3vk87Kw83Sk5rypC5+mdaf+TMZe57muQJDWPeaTFjZiO9OfgypImUpTk1B1rC6QlK4mES5DTW/IH1s6uJpipQJLgV5Amc2pnWPWApUCJ9KYivVM7HhilQtDbtxoqzQjKFw5CiDenw0gLQFC5NnoZAnz5cV7t7WhpWy7MUyCl++QTKMn+HwvqP33/49vOf//jpl19//ePb1y//+Pz8/3/68vXz379++edvP97/9MfPP/z+ef3r3w==);lineShape=1;strokeColor=#2197FF;" vertex="1" parent="1">
          <mxGeometry x="-16.770489075369824" y="60.09981963297821" width="693.9915986347953" height="424.2701443384244" as="geometry" />
        </mxCell>
        <mxCell id="Yl4wIURJnz0LVksq39Sc-60" value="Returns" style="shape=rhombus;perimeter=rhombusPerimeter;whiteSpace=wrap;html=1;align=center;" vertex="1" parent="1">
          <mxGeometry x="260" width="120" height="60" as="geometry" />
        </mxCell>
        <mxCell id="Yl4wIURJnz0LVksq39Sc-61" value="" style="edgeStyle=entityRelationEdgeStyle;fontSize=12;html=1;endArrow=ERoneToMany;exitX=0.294;exitY=0.02;exitDx=0;exitDy=0;entryX=0;entryY=0.5;entryDx=0;entryDy=0;exitPerimeter=0;" edge="1" parent="1" source="Yl4wIURJnz0LVksq39Sc-59" target="Yl4wIURJnz0LVksq39Sc-60">
          <mxGeometry width="100" height="100" relative="1" as="geometry">
            <mxPoint x="-100" y="300" as="sourcePoint" />
            <mxPoint y="200" as="targetPoint" />
          </mxGeometry>
        </mxCell>
        <mxCell id="Yl4wIURJnz0LVksq39Sc-62" value="" style="fontSize=12;html=1;endArrow=ERone;endFill=1;rounded=0;exitX=1;exitY=0.5;exitDx=0;exitDy=0;entryX=0.75;entryY=0;entryDx=0;entryDy=0;" edge="1" parent="1" source="Yl4wIURJnz0LVksq39Sc-60" target="Yl4wIURJnz0LVksq39Sc-1">
          <mxGeometry width="100" height="100" relative="1" as="geometry">
            <mxPoint x="500" y="-20" as="sourcePoint" />
            <mxPoint x="711" y="19" as="targetPoint" />
          </mxGeometry>
        </mxCell>
      </root>
    </mxGraphModel>
  </diagram>
</mxfile>
